<svg id="Capa_1" data-name="Capa 1" xmlns="http://www.w3.org/2000/svg" viewBox="0 0 221.93 407.15"><defs><style>.cls-1,.cls-2{fill:#1d1d1b;}.cls-1{fill-rule:evenodd;}</style></defs><path class="cls-1" d="M303.1,226.86c-7.24,5.18-14.1,10.06-20.94,15-6.65,4.79-10.94,10.94-9.88,19.49.34,2.79,1.34,6.1,3.23,8,7.1,7.05,14.58,13.73,22.13,20.31,10.9,9.5,19.49,20.84,24.81,34.11,4.25,10.63,4.23,22.12,1.57,33.41-.22.93-.71,1.81-.84,2.75-1.06,7.9-6.23,11.61-13.35,13.69-12.61,3.69-25.65,4.29-38.56,5.68-8.69.94-17.48.81-26.22,1.34-5,.3-8.26-1.86-10.73-6a60.71,60.71,0,0,1-7.9-24.16c-.57-4.92.46-10.27,1.84-15.12,3.35-11.78,6.92-23.53,11.16-35,3.9-10.58,8.85-20.78,13.23-31.2,2.1-5,4.16-10,5.84-15.21a13.53,13.53,0,0,0,.06-6.3c-1.15-6.29-2.49-12.54-3.93-18.77-.6-2.63-.1-4.37,2.26-5.92,9.66-6.35,20-9.47,31.58-7.07C294.88,217.16,299.18,221.56,303.1,226.86Z" transform="translate(-138.6 -46.85)"/><path class="cls-1" d="M312.81,221.59c-18-22.3-38.3-20.54-60.47-8-.44-10.14-1-19.69-1.23-29.24-.16-6.3-.18-12.62.27-18.89,1.24-17.5,9.83-30.72,25.4-38.35,18-8.84,34.6-5,48.58,9.63,9.37,9.77,13.33,21.78,15.46,34.77,2.06,12.63-2,23.18-10.37,32.28C324.93,209.85,318.94,215.45,312.81,221.59Zm-14.46-78.22a4.49,4.49,0,0,0-4.39,4.16,4.33,4.33,0,1,0,4.39-4.16Z" transform="translate(-138.6 -46.85)"/><path class="cls-1" d="M252.78,240.13c-.55,1.22-.81,2.76-1.71,3.62a206.28,206.28,0,0,1-48.19,34.59,124,124,0,0,1-31,10.66c-8.77,1.85-17.08-2.35-22.25-9.79-4.1-5.9-3.76-13.14-2.09-20.13A28.62,28.62,0,0,1,156.56,244c7.62-6.84,15.37-13.56,22.62-20.79,7.59-7.56,13.54-16.29,14.49-27.41.69-8.1-2.28-15.36-6.37-22.07-5.88-9.65-12.5-18.86-18.1-28.67-4.46-7.83-8.95-15.94-11.49-24.5-3.46-11.65-1.64-23.49,3.47-34.62,4.37-9.54,10.95-17.46,18.26-24.87,7.52-7.61,16.89-11.19,27.16-13.2,8.43-1.66,16.74-1,25.13.2C243,49.6,250.19,59.42,252.46,69c.38,1.62.56,3.3.84,5l-1.07.53a12.4,12.4,0,0,1-1.59-3,32.63,32.63,0,0,0-7.95-15.43c-5.44-5.85-12.57-6.33-19.71-6.79-20.1-1.29-36.46,5.81-49,21.75a71.74,71.74,0,0,0-14.26,29.67c-2.46,11.41-.11,22,5.51,31.73,7.67,13.28,16.15,26.1,24,39.29a60.29,60.29,0,0,1,6.08,13.66c3.63,12.31-.39,23.26-8.42,32.31A340.41,340.41,0,0,1,160,244.14c-7.52,6.78-10.71,15-10.4,24.76.33,10,6.58,14.33,16.06,17.4,4.64,1.5,9.06,0,13.48-1.28,17.56-5.07,33.13-13.83,47.68-24.78,7.77-5.85,15.73-11.37,22.4-18.52a22.68,22.68,0,0,1,2.64-2.12Z" transform="translate(-138.6 -46.85)"/><path class="cls-1" d="M308.9,223.32l-1.84,1.58a5.52,5.52,0,0,1-.91-.55c-2.4-2.26-4.74-4.58-7.2-6.78-7.29-6.49-15.72-7-24.9-5.23-13.17,2.59-23.15,9.89-31.5,19.93a18.66,18.66,0,0,1-3.36,3.4c-.66.47-1.85.2-2.85-.16,8.17-9.92,16.09-19.7,28.47-24,6.79-2.34,13.79-4.12,21-3.13C295.55,209.73,302.47,214.37,308.9,223.32Z" transform="translate(-138.6 -46.85)"/><path class="cls-1" d="M226.86,88.91c-9.81-2.66-19.61-4.46-27.3-10.82l33.72,9.83c-16.09,8.82-34.73,10.43-50.24,20l-.75-1.27c1.5-1,2.88-2.41,4.53-3,9.25-3.52,18.57-6.86,27.86-10.26Z" transform="translate(-138.6 -46.85)"/><path class="cls-1" d="M209.12,157.32c5,8.18,12.12,13.53,21.44,15.34,4.64.89,9.5.56,14.25.87a6.06,6.06,0,0,1,2,1c-.55.49-1,1.28-1.65,1.42-13,2.94-29.64-3.95-36.52-15.13a10.9,10.9,0,0,1-.81-3.14Z" transform="translate(-138.6 -46.85)"/><path class="cls-2" d="M151.86,412.64a5.88,5.88,0,0,0-2-1.39,6.88,6.88,0,0,0-2.7-.5,6.58,6.58,0,0,0-2.82.58,6.44,6.44,0,0,0-2.14,1.55,7.2,7.2,0,0,0-1.35,2.27,8.11,8.11,0,0,0,0,5.44,7,7,0,0,0,1.35,2.26,6.55,6.55,0,0,0,5,2.11,10.11,10.11,0,0,0,2.54-.3,6.43,6.43,0,0,0,1.87-.76v-5h-3.81v-1.47h5.47v7.38a10.76,10.76,0,0,1-2.88,1.2,13.07,13.07,0,0,1-3.21.39,8.75,8.75,0,0,1-3.42-.65,7.9,7.9,0,0,1-4.46-4.49,9.19,9.19,0,0,1-.63-3.44,9,9,0,0,1,.64-3.44,8.13,8.13,0,0,1,4.49-4.5,8.73,8.73,0,0,1,3.38-.64,9.09,9.09,0,0,1,3.41.58,7.37,7.37,0,0,1,2.5,1.63Z" transform="translate(-138.6 -46.85)"/><path class="cls-2" d="M172.7,426.44a6.4,6.4,0,0,1-3-.63,5.57,5.57,0,0,1-1.87-1.61,5.75,5.75,0,0,1-1-2.11,9.38,9.38,0,0,1-.27-2.16V409.69h1.66v10.06a8.29,8.29,0,0,0,.23,1.93,5.12,5.12,0,0,0,.75,1.66,4,4,0,0,0,1.38,1.17,4.41,4.41,0,0,0,2.1.45,4.47,4.47,0,0,0,2.1-.45,4,4,0,0,0,1.37-1.17,5.12,5.12,0,0,0,.75-1.66,8.29,8.29,0,0,0,.23-1.93V409.69h1.66v10.24a9.38,9.38,0,0,1-.27,2.16,5.75,5.75,0,0,1-.95,2.11,5.42,5.42,0,0,1-1.88,1.61A6.42,6.42,0,0,1,172.7,426.44Z" transform="translate(-138.6 -46.85)"/><path class="cls-2" d="M194,426h-1.67V409.69h4.8a10.46,10.46,0,0,1,2.23.23,5.12,5.12,0,0,1,1.78.75,3.61,3.61,0,0,1,1.16,1.35,4.45,4.45,0,0,1,.42,2,4,4,0,0,1-.33,1.64,3.93,3.93,0,0,1-.87,1.28,4.13,4.13,0,0,1-1.32.86,5.55,5.55,0,0,1-1.66.42l4.78,7.78h-2l-4.53-7.64H194Zm0-9.07h2.88a5.47,5.47,0,0,0,3.09-.73,2.45,2.45,0,0,0,1.09-2.18,2.94,2.94,0,0,0-.3-1.36,2.42,2.42,0,0,0-.84-.9,3.78,3.78,0,0,0-1.29-.51,8,8,0,0,0-1.68-.16h-3Z" transform="translate(-138.6 -46.85)"/><path class="cls-2" d="M217,426h-1.66V409.69h4.8a10.46,10.46,0,0,1,2.23.23,5.12,5.12,0,0,1,1.78.75A3.61,3.61,0,0,1,225.3,412a4.45,4.45,0,0,1,.42,2,4,4,0,0,1-.33,1.64,3.93,3.93,0,0,1-.87,1.28,4.13,4.13,0,0,1-1.32.86,5.55,5.55,0,0,1-1.66.42l4.78,7.78h-2l-4.52-7.64H217Zm0-9.07h2.89a5.47,5.47,0,0,0,3.09-.73,2.45,2.45,0,0,0,1.08-2.18,2.94,2.94,0,0,0-.29-1.36,2.42,2.42,0,0,0-.84-.9,3.78,3.78,0,0,0-1.29-.51,8,8,0,0,0-1.68-.16h-3Z" transform="translate(-138.6 -46.85)"/><path class="cls-2" d="M240,426h-1.66V409.69H240Z" transform="translate(-138.6 -46.85)"/><path class="cls-2" d="M261.52,412.32a3.92,3.92,0,0,0-1.36-1.19,4.43,4.43,0,0,0-3.23-.26,3.62,3.62,0,0,0-1.13.56,3,3,0,0,0-.82,1,2.9,2.9,0,0,0-.31,1.36A2.51,2.51,0,0,0,255,415a2.85,2.85,0,0,0,.79.87,4.83,4.83,0,0,0,1.13.59l1.33.46q.84.27,1.71.6a5.94,5.94,0,0,1,1.55.84,4,4,0,0,1,1.13,1.32,4.15,4.15,0,0,1,.44,2,4.54,4.54,0,0,1-.47,2.12,4.33,4.33,0,0,1-1.21,1.46,4.85,4.85,0,0,1-1.7.85,6.73,6.73,0,0,1-1.93.28,7.51,7.51,0,0,1-1.48-.15,6.54,6.54,0,0,1-1.4-.45,5.5,5.5,0,0,1-1.25-.76,5.64,5.64,0,0,1-1-1.06L254,423a4.4,4.4,0,0,0,1.48,1.46,4.24,4.24,0,0,0,2.25.59,4.05,4.05,0,0,0,1.27-.2,3.61,3.61,0,0,0,1.17-.6,3.26,3.26,0,0,0,.85-1,2.75,2.75,0,0,0,.34-1.37,2.79,2.79,0,0,0-.34-1.42,3,3,0,0,0-.89-.95,5.57,5.57,0,0,0-1.27-.63q-.7-.25-1.5-.51c-.53-.17-1.07-.36-1.59-.57a5.35,5.35,0,0,1-1.4-.85,3.88,3.88,0,0,1-1-1.28,4.7,4.7,0,0,1,.09-3.9,4.29,4.29,0,0,1,1.24-1.4,5.23,5.23,0,0,1,1.68-.81,6.89,6.89,0,0,1,1.83-.25,6.29,6.29,0,0,1,2.83.58,4.91,4.91,0,0,1,1.78,1.4Z" transform="translate(-138.6 -46.85)"/><path class="cls-2" d="M292,417.86a9,9,0,0,1-.64,3.44,8.07,8.07,0,0,1-4.49,4.49,9.11,9.11,0,0,1-6.76,0,8.07,8.07,0,0,1-4.49-4.49,9.56,9.56,0,0,1,0-6.88,8.13,8.13,0,0,1,4.49-4.5,9.25,9.25,0,0,1,6.76,0,8.13,8.13,0,0,1,4.49,4.5A9,9,0,0,1,292,417.86Zm-1.75,0a8,8,0,0,0-.46-2.72,7,7,0,0,0-1.34-2.27,6.4,6.4,0,0,0-2.13-1.55,7.19,7.19,0,0,0-5.66,0,6.3,6.3,0,0,0-2.13,1.55,6.82,6.82,0,0,0-1.34,2.27,8.27,8.27,0,0,0,0,5.44,6.68,6.68,0,0,0,1.34,2.26,6.55,6.55,0,0,0,2.13,1.54,7.31,7.31,0,0,0,5.66,0,6.66,6.66,0,0,0,2.13-1.54,6.84,6.84,0,0,0,1.34-2.26A8,8,0,0,0,290.25,417.87Z" transform="translate(-138.6 -46.85)"/><path class="cls-2" d="M316.27,423.6h.05V409.69H318V426h-2.07L306.4,412h0V426h-1.66V409.69h2.08Z" transform="translate(-138.6 -46.85)"/><path class="cls-2" d="M333.21,426h-1.66V409.69h1.66Z" transform="translate(-138.6 -46.85)"/><path class="cls-2" d="M360.53,423.37a6.52,6.52,0,0,1-1,1.18,6.31,6.31,0,0,1-1.36,1,7.71,7.71,0,0,1-1.71.67,8.15,8.15,0,0,1-2,.24,8.67,8.67,0,0,1-3.41-.65,8,8,0,0,1-2.7-1.78,8.21,8.21,0,0,1-1.77-2.71,9.19,9.19,0,0,1-.63-3.44,8.78,8.78,0,0,1,.65-3.44,8.13,8.13,0,0,1,1.78-2.71,8.22,8.22,0,0,1,2.7-1.79,9.09,9.09,0,0,1,5.15-.46,8.31,8.31,0,0,1,1.62.53,7.07,7.07,0,0,1,1.39.82,4.79,4.79,0,0,1,1,1.07l-1.39,1a4,4,0,0,0-.68-.79,4.65,4.65,0,0,0-1-.69,6.32,6.32,0,0,0-1.26-.48,5.26,5.26,0,0,0-1.46-.19,6.63,6.63,0,0,0-2.85.58,6.44,6.44,0,0,0-2.14,1.55,7,7,0,0,0-1.34,2.26,8.22,8.22,0,0,0-.46,2.72,7.69,7.69,0,0,0,.48,2.71,6.75,6.75,0,0,0,1.35,2.27,6.3,6.3,0,0,0,2.13,1.55,6.78,6.78,0,0,0,2.83.57,6.44,6.44,0,0,0,2.67-.57,5.09,5.09,0,0,0,2.13-1.85Z" transform="translate(-138.6 -46.85)"/><path class="cls-2" d="M204.82,450.77h0l5.47-13.52h2.53v16.33h-1.66V439.4h0l-5.91,14.18h-.88l-5.9-14.18h-.05v14.18h-1.66V437.25h2.54Z" transform="translate(-138.6 -46.85)"/><path class="cls-2" d="M232.44,454a6.36,6.36,0,0,1-3-.63,5.38,5.38,0,0,1-1.87-1.61,5.94,5.94,0,0,1-1-2.11,9.93,9.93,0,0,1-.26-2.16V437.25H228v10.06a8.29,8.29,0,0,0,.23,1.93,4.73,4.73,0,0,0,.75,1.66,3.92,3.92,0,0,0,1.37,1.17,5.13,5.13,0,0,0,4.2,0,3.83,3.83,0,0,0,1.37-1.17,4.73,4.73,0,0,0,.75-1.66,7.78,7.78,0,0,0,.23-1.93V437.25h1.67v10.24a9.38,9.38,0,0,1-.27,2.16,5.94,5.94,0,0,1-1,2.11,5.42,5.42,0,0,1-1.88,1.61A6.37,6.37,0,0,1,232.44,454Z" transform="translate(-138.6 -46.85)"/><path class="cls-2" d="M259.94,439.88a3.92,3.92,0,0,0-1.36-1.19,4.15,4.15,0,0,0-2-.45,4.07,4.07,0,0,0-1.22.19,3.62,3.62,0,0,0-1.13.56,2.83,2.83,0,0,0-.82,1,2.79,2.79,0,0,0-.31,1.36,2.51,2.51,0,0,0,.3,1.29,2.85,2.85,0,0,0,.79.87,4.83,4.83,0,0,0,1.13.59l1.32.46c.57.18,1.14.38,1.72.6a5.94,5.94,0,0,1,1.55.84,4,4,0,0,1,1.13,1.31,4.22,4.22,0,0,1,.44,2,4.37,4.37,0,0,1-1.68,3.58,5.12,5.12,0,0,1-1.7.85,6.73,6.73,0,0,1-1.93.28,7.51,7.51,0,0,1-1.48-.15,6.54,6.54,0,0,1-1.4-.45,5.5,5.5,0,0,1-1.25-.76,6,6,0,0,1-1-1.06l1.44-1.06a4.31,4.31,0,0,0,1.48,1.46,4.24,4.24,0,0,0,2.25.59,4.37,4.37,0,0,0,1.27-.2,3.61,3.61,0,0,0,1.17-.6,3.39,3.39,0,0,0,.85-1,2.75,2.75,0,0,0,.33-1.37,2.79,2.79,0,0,0-.33-1.42,3,3,0,0,0-.89-.95,5.57,5.57,0,0,0-1.27-.63q-.71-.26-1.5-.51c-.54-.17-1.07-.36-1.59-.58a5.27,5.27,0,0,1-1.41-.84,3.85,3.85,0,0,1-1-1.28,4.7,4.7,0,0,1,.09-3.9,4.33,4.33,0,0,1,1.24-1.41,5.31,5.31,0,0,1,1.68-.8,6.84,6.84,0,0,1,1.82-.26,6.31,6.31,0,0,1,2.84.59,4.81,4.81,0,0,1,1.78,1.4Z" transform="translate(-138.6 -46.85)"/><path class="cls-2" d="M275.93,453.58h-1.66V437.25h1.66Z" transform="translate(-138.6 -46.85)"/><path class="cls-2" d="M303.25,450.93a6.88,6.88,0,0,1-1,1.18,7,7,0,0,1-1.37,1,7.33,7.33,0,0,1-1.7.66,7.81,7.81,0,0,1-2,.25,8.9,8.9,0,0,1-3.42-.65,8,8,0,0,1-2.7-1.78,8.23,8.23,0,0,1-1.76-2.72,9.47,9.47,0,0,1,0-6.87,8,8,0,0,1,1.79-2.71,8.22,8.22,0,0,1,2.7-1.79,8.8,8.8,0,0,1,5.14-.46,8.41,8.41,0,0,1,1.63.53,7.47,7.47,0,0,1,1.38.81,4.82,4.82,0,0,1,1,1.08l-1.38,1a3.79,3.79,0,0,0-.69-.79,4.41,4.41,0,0,0-1-.69,5.89,5.89,0,0,0-1.26-.48,5.26,5.26,0,0,0-1.46-.19,6.69,6.69,0,0,0-2.85.58,6.44,6.44,0,0,0-2.14,1.55,6.65,6.65,0,0,0-1.33,2.26,8,8,0,0,0-.46,2.72,7.69,7.69,0,0,0,.47,2.71,6.84,6.84,0,0,0,1.35,2.27,6.43,6.43,0,0,0,2.13,1.55,6.78,6.78,0,0,0,2.83.57,6.4,6.4,0,0,0,2.67-.57A5.09,5.09,0,0,0,302,450.1Z" transform="translate(-138.6 -46.85)"/></svg>